<?xml version="1.0" encoding="utf-8"?>
<!-- Generator: Adobe Illustrator 22.0.0, SVG Export Plug-In . SVG Version: 6.00 Build 0)  -->
<svg version="1.1" id="图层_1" xmlns="http://www.w3.org/2000/svg" xmlns:xlink="http://www.w3.org/1999/xlink" x="0px" y="0px"
	 viewBox="0 0 800 500" style="enable-background:new 0 0 800 500;" xml:space="preserve">
<style type="text/css">
	.st0{fill:#41E6AF;}
</style>
<g>
	<polygon class="st0" points="341.1,240.2 337.1,233.5 337.1,233.5 315.2,196.7 315.1,196.7 314.4,195.4 306.4,195.4 275.3,250.1 
		306.9,304.5 314.9,304.5 315.1,304.2 341.2,259.5 325.1,259.5 311.2,284.2 291.4,250 310.8,215.8 324.9,240.1 	"/>
	<polygon class="st0" points="219.4,231.3 234,206.4 229.1,198.5 229.1,198.5 225.7,192.9 200.7,237 200.7,237 200,238.2 204,245.2 
		266.9,245.2 298.6,190.9 294.2,183.3 250.2,183.4 249.5,183.4 242.5,183.3 246.2,190.3 246.2,190.3 249.9,197.3 278.7,197.2 
		258.9,231.3 	"/>
	<path class="st0" d="M250.5,202.5c-1.1,0-2.3,0.2-3.5,0.6c-1.3,0.4-2.6,1-3.8,1.7c-3.4,2.1-5.8,5.1-6.2,7.9
		c-0.2,1.3,0.1,2.4,0.8,3.2c0,0,0,0,0,0c0.1,0.2,0.3,0.3,0.4,0.5c0.1,0.1,0.2,0.1,0.3,0.2c0.1,0.1,0.1,0.1,0.2,0.2
		c0.2,0.1,0.3,0.2,0.5,0.3c0,0,0,0,0,0c2.1,1,5.4,0.8,8.6-0.7l0.1-0.1c0.3-0.1,0.6-0.3,0.9-0.4c0.3-0.1,0.5-0.3,0.8-0.5
		c0.3-0.2,0.6-0.4,0.9-0.6c0.3-0.2,0.5-0.4,0.8-0.6l0.2-0.1c0.2-0.2,0.4-0.3,0.6-0.5c0.1-0.1,0.1-0.1,0.2-0.2
		c0.2-0.1,0.3-0.3,0.4-0.4c0.1-0.1,0.2-0.2,0.3-0.4c0.1-0.2,0.3-0.3,0.4-0.5c0.1-0.1,0.1-0.1,0.2-0.2c0.1-0.2,0.3-0.3,0.4-0.5
		l0.2-0.2c0.1-0.2,0.2-0.3,0.3-0.5c0,0,0,0,0-0.1l0.1-0.2c0.2-0.2,0.3-0.5,0.4-0.7c0.1-0.2,0.2-0.5,0.3-0.7l0.1-0.1
		c0-0.1,0.1-0.2,0.1-0.2c0,0,0,0,0,0c0-0.1,0-0.1,0.1-0.2c0-0.2,0.1-0.3,0.1-0.5c0-0.2,0.1-0.2,0.1-0.3c0-0.1,0-0.2,0-0.2
		c0-0.2,0-0.3,0-0.4l0-0.2c0-0.2,0-0.3,0-0.5c0-0.1,0-0.1,0-0.2c0-0.1,0-0.2,0-0.2c0-0.1,0-0.1,0-0.2l0-0.1c0-0.2-0.1-0.3-0.2-0.5
		c-0.1-0.2-0.2-0.3-0.3-0.5l0,0C254.6,203.2,252.7,202.5,250.5,202.5"/>
	<path class="st0" d="M257.8,209.8c0,0.2-0.1,0.3-0.2,0.5c0,0,0,0,0,0c0,0.1,0,0.1-0.1,0.2c0,0,0,0,0,0c-0.1,0.3-0.2,0.5-0.4,0.8v0
		c0,0,0,0,0,0c-1.1,2.1-2.9,4.1-5.1,5.7c-0.3,0.2-0.6,0.4-0.9,0.6c-0.3,0.2-0.6,0.4-0.9,0.5l-0.1,0c0,0,0,0,0,0
		c-0.1,0.1-0.2,0.1-0.3,0.2c-0.2,0.1-0.3,0.2-0.5,0.3l-0.1,0c-0.1,0-0.2,0.1-0.3,0.1c-0.2,0.1-0.4,0.2-0.6,0.2l-0.2,0.1
		c0,0,0,0-0.1,0c-0.1,0-0.2,0.1-0.3,0.1c-0.2,0.1-0.4,0.1-0.6,0.2l-0.2,0.1c0,0-0.1,0-0.1,0c-0.2,0.1-0.4,0.1-0.6,0.2
		c-0.1,0-0.2,0.1-0.4,0.1l0,0l0,0l-0.1,0c-0.2,0-0.4,0.1-0.5,0.1c-0.1,0-0.3,0-0.4,0.1c0,0-0.1,0-0.1,0c-0.1,0-0.2,0-0.3,0.1
		c-0.1,0-0.2,0-0.3,0c-0.3,0-0.7,0.1-1,0.1h-0.1c-0.3,0-0.6,0-0.9,0c-0.1,0-0.2,0-0.2,0l-0.1,0c-0.2,0-0.4,0-0.6-0.1
		c-0.1,0-0.2,0-0.3-0.1c-0.2,0-0.4-0.1-0.6-0.1c-0.1,0-0.2-0.1-0.3-0.1l5.5,8.9l11.8-0.1l6.1-10.8l-5.5-9c0,0.1,0,0.2-0.1,0.3
		c0,0.1,0,0.1,0,0.2c0,0.1-0.1,0.2-0.1,0.4C257.8,209.7,257.8,209.8,257.8,209.8"/>
	<path class="st0" d="M320.5,242.3c0.6,0.9,1,2,1.3,3.3c0.3,1.3,0.5,2.7,0.5,4.1c0,4-1.3,7.6-3.5,9.4c-1,0.8-2.1,1.2-3.2,1h0
		c-0.2,0-0.4-0.1-0.6-0.1c-0.1,0-0.2-0.1-0.3-0.1c-0.1,0-0.2-0.1-0.3-0.1c-0.2-0.1-0.4-0.2-0.5-0.3c0,0,0,0,0,0
		c-2-1.3-3.5-4.2-3.9-7.7l0-0.1c0-0.3-0.1-0.6-0.1-1c0-0.3,0-0.6,0-0.9c0-0.4,0-0.7,0-1.1c0-0.3,0-0.6,0.1-0.9l0-0.2
		c0-0.2,0.1-0.5,0.1-0.7c0-0.1,0-0.2,0-0.3c0-0.2,0.1-0.4,0.1-0.6c0-0.2,0.1-0.3,0.1-0.5c0.1-0.2,0.1-0.4,0.2-0.6
		c0-0.1,0.1-0.2,0.1-0.3c0.1-0.2,0.1-0.4,0.2-0.6l0.1-0.3c0.1-0.2,0.2-0.3,0.2-0.5c0,0,0,0,0-0.1l0.1-0.2c0.1-0.3,0.3-0.5,0.4-0.7
		c0.1-0.2,0.3-0.4,0.4-0.6l0.1-0.1c0.1-0.1,0.1-0.1,0.2-0.2c0,0,0,0,0,0c0.1-0.1,0.1-0.1,0.1-0.2c0.1-0.1,0.2-0.2,0.3-0.3
		c0.1-0.1,0.2-0.2,0.2-0.2c0.1-0.1,0.1-0.1,0.2-0.2c0.1-0.1,0.2-0.2,0.3-0.3l0.2-0.1c0.1-0.1,0.3-0.2,0.4-0.3c0.1,0,0.1,0,0.2-0.1
		c0.1,0,0.2-0.1,0.2-0.1c0,0,0.1,0,0.1-0.1l0.1,0c0.2,0,0.3-0.1,0.5-0.1c0.2,0,0.4,0,0.6,0h0C317.8,239.2,319.3,240.4,320.5,242.3"
		/>
	<path class="st0" d="M310.4,239.9c-0.1,0.1-0.2,0.3-0.3,0.4c0,0,0,0,0,0c0,0.1-0.1,0.1-0.1,0.2c0,0,0,0,0,0
		c-0.2,0.2-0.3,0.5-0.5,0.7c0,0,0,0,0,0h0c-1.3,2-2,4.6-2.2,7.3c0,0.4,0,0.7,0,1.1c0,0.3,0,0.7,0,1l0,0.1c0,0,0,0,0,0
		c0,0.1,0,0.3,0,0.4c0,0.2,0,0.4,0.1,0.6l0,0.1c0,0.1,0,0.2,0,0.3c0,0.2,0.1,0.4,0.1,0.6l0,0.2c0,0,0,0,0,0.1c0,0.1,0,0.2,0.1,0.3
		c0,0.2,0.1,0.4,0.1,0.6l0.1,0.2c0,0,0,0.1,0,0.1c0,0.2,0.1,0.4,0.2,0.6c0,0.1,0.1,0.2,0.1,0.3l0,0c0,0,0,0,0,0l0,0.1
		c0.1,0.2,0.1,0.3,0.2,0.5c0,0.1,0.1,0.2,0.2,0.4c0,0,0,0.1,0,0.1c0,0.1,0.1,0.2,0.1,0.3c0.1,0.1,0.1,0.2,0.1,0.2
		c0.1,0.3,0.3,0.6,0.5,0.9l0.1,0.1c0.2,0.3,0.3,0.5,0.5,0.7c0,0.1,0.1,0.1,0.1,0.2l0.1,0.1c0.1,0.2,0.3,0.3,0.4,0.5
		c0.1,0.1,0.1,0.2,0.2,0.2c0.2,0.2,0.3,0.3,0.4,0.5c0.1,0.1,0.2,0.1,0.2,0.2l-10.5,0l-6.1-10.1l6-10.8l10.5,0
		c-0.1,0.1-0.1,0.1-0.2,0.2c0,0-0.1,0.1-0.1,0.1C310.7,239.6,310.6,239.7,310.4,239.9C310.5,239.9,310.4,239.9,310.4,239.9"/>
	<path class="st0" d="M250.5,297.4c-1.1,0-2.3-0.2-3.5-0.6c-1.3-0.4-2.6-1-3.8-1.7c-3.4-2.1-5.8-5.1-6.2-7.9
		c-0.2-1.3,0.1-2.4,0.8-3.2c0,0,0,0,0,0c0.1-0.2,0.3-0.3,0.4-0.5c0.1-0.1,0.2-0.1,0.3-0.2c0.1-0.1,0.1-0.1,0.2-0.2
		c0.2-0.1,0.3-0.2,0.5-0.3c0,0,0,0,0,0c2.1-1,5.4-0.8,8.6,0.7l0.1,0.1c0.3,0.1,0.6,0.3,0.9,0.4c0.3,0.1,0.5,0.3,0.8,0.5
		c0.3,0.2,0.6,0.4,0.9,0.6c0.3,0.2,0.5,0.4,0.8,0.6l0.2,0.1c0.2,0.2,0.4,0.3,0.6,0.5c0.1,0.1,0.1,0.1,0.2,0.2
		c0.2,0.1,0.3,0.3,0.4,0.4c0.1,0.1,0.2,0.2,0.3,0.4c0.1,0.2,0.3,0.3,0.4,0.5c0.1,0.1,0.1,0.1,0.2,0.2c0.1,0.2,0.3,0.3,0.4,0.5
		l0.2,0.2c0.1,0.2,0.2,0.3,0.3,0.5l0,0.1l0.1,0.2c0.2,0.2,0.3,0.5,0.4,0.7c0.1,0.2,0.2,0.5,0.3,0.7l0.1,0.1c0,0.1,0.1,0.2,0.1,0.2
		c0,0,0,0,0,0c0,0.1,0,0.1,0.1,0.2c0,0.2,0.1,0.3,0.1,0.5c0,0.2,0.1,0.2,0.1,0.3c0,0.1,0,0.2,0,0.2c0,0.2,0,0.3,0,0.4l0,0.2
		c0,0.2,0,0.3,0,0.5c0,0.1,0,0.1,0,0.2c0,0.1,0,0.2,0,0.2c0,0.1,0,0.1,0,0.2l0,0.1c0,0.2-0.1,0.3-0.2,0.5c-0.1,0.2-0.2,0.3-0.3,0.5
		l0,0C254.6,296.7,252.7,297.5,250.5,297.4"/>
	<path class="st0" d="M257.8,290.1c0-0.2-0.1-0.3-0.2-0.5c0,0,0,0,0,0c0-0.1,0-0.1-0.1-0.2c0,0,0,0,0,0c-0.1-0.3-0.2-0.5-0.4-0.8
		c0,0,0,0,0,0c-1.1-2.1-2.9-4.1-5.1-5.7c-0.3-0.2-0.6-0.4-0.9-0.6c-0.3-0.2-0.6-0.4-0.9-0.5l-0.1,0c0,0,0,0,0,0
		c-0.1-0.1-0.2-0.1-0.3-0.2c-0.2-0.1-0.3-0.2-0.5-0.3l-0.1,0c-0.1,0-0.2-0.1-0.3-0.1c-0.2-0.1-0.4-0.2-0.6-0.2l-0.2-0.1
		c0,0,0,0-0.1,0c-0.1,0-0.2-0.1-0.3-0.1c-0.2-0.1-0.4-0.1-0.6-0.2l-0.2-0.1c0,0-0.1,0-0.1,0c-0.2-0.1-0.4-0.1-0.6-0.2
		c-0.1,0-0.2-0.1-0.4-0.1l0,0c0,0,0,0,0,0l-0.1,0c-0.2,0-0.4-0.1-0.5-0.1c-0.1,0-0.3,0-0.4-0.1c0,0-0.1,0-0.1,0
		c-0.1,0-0.2,0-0.3-0.1c-0.1,0-0.2,0-0.3,0c-0.3,0-0.7-0.1-1-0.1l-0.1,0c-0.3,0-0.6,0-0.9,0c-0.1,0-0.2,0-0.2,0l-0.1,0
		c-0.2,0-0.4,0-0.6,0.1c-0.1,0-0.2,0-0.3,0.1c-0.2,0-0.4,0.1-0.6,0.1c-0.1,0-0.2,0.1-0.3,0.1l5.5-8.9l11.8,0.1l6.1,10.8l-5.5,9
		c0-0.1,0-0.2-0.1-0.3c0-0.1,0-0.1,0-0.2c0-0.1-0.1-0.2-0.1-0.4C257.8,290.2,257.8,290.1,257.8,290.1"/>
	<polygon class="st0" points="278.7,302.7 249.9,302.6 245.5,310.9 242.5,316.6 250.2,316.5 250.2,316.6 294.2,316.7 298.6,309.1 
		266.9,254.8 204,254.7 200,261.7 200.8,263 200.7,263 225.7,307 234,293.5 219.4,268.7 258.9,268.7 	"/>
	<path class="st0" d="M474.5,250c0-3.9,0-7.2,0.2-9.8c0.1-2.6,0.3-4.7,0.6-6.4c1.2-7.1,6.6-11.2,13.5-11.2c4.5,0,8.6,1.7,11.2,5.5
		c1.1,1.7,2,3.6,2.5,5.8c0.1,0.2,0.2,0.3,0.5,0.3h15.5c0.2,0,0.3-0.2,0.3-0.4c-1.7-9.6-6.8-18.3-15.9-22.5c-4.2-2-8.9-3-14.2-3
		c-8.8,0-16.1,3-22.1,9c-3.4,3.4-5.7,7.6-6.7,12.3c-0.9,4.6-1.4,11.4-1.4,20.4c0,9,0.5,15.8,1.4,20.4c0.9,4.8,3.3,8.9,6.7,12.3
		c6,6,13.4,9,22.1,9c5.3,0,10-1,14.2-3c9.1-4.3,14.2-12.9,15.9-22.5c0-0.2,0-0.4-0.3-0.4H503c-0.3,0-0.4,0.1-0.5,0.3
		c-0.6,2.2-1.4,4.1-2.5,5.8c-2.6,3.8-6.7,5.5-11.2,5.5c-6.9,0-12.3-4.2-13.5-11.2c-0.3-1.6-0.5-3.8-0.6-6.4
		C474.5,257.2,474.5,253.9,474.5,250"/>
	<path class="st0" d="M555.7,250c0-3.9,0-7.2,0.2-9.8c0.1-2.6,0.3-4.7,0.6-6.4c1.2-7.1,6.6-11.2,13.5-11.2c4.5,0,8.6,1.7,11.2,5.5
		c1.1,1.7,2,3.6,2.5,5.8c0.1,0.2,0.2,0.3,0.5,0.3h15.5c0.2,0,0.3-0.2,0.3-0.4c-1.7-9.6-6.8-18.3-15.9-22.5c-4.2-2-8.9-3-14.2-3
		c-8.8,0-16.1,3-22.1,9c-3.4,3.4-5.7,7.6-6.7,12.3c-0.9,4.6-1.4,11.4-1.4,20.4c0,9,0.5,15.8,1.4,20.4c0.9,4.8,3.3,8.9,6.7,12.3
		c6,6,13.4,9,22.1,9c5.3,0,10-1,14.2-3c9.1-4.3,14.2-12.9,15.9-22.5c0-0.2,0-0.4-0.3-0.4h-15.5c-0.3,0-0.4,0.1-0.5,0.3
		c-0.6,2.2-1.4,4.1-2.5,5.8c-2.6,3.8-6.7,5.5-11.2,5.5c-6.9,0-12.3-4.2-13.5-11.2c-0.3-1.6-0.5-3.8-0.6-6.4
		C555.8,257.2,555.7,253.9,555.7,250"/>
	<path class="st0" d="M390.5,210.4c0-0.8-0.6-1.4-1.4-1.4h-13.2c-0.8,0-1.4,0.6-1.4,1.4v79.2c0,0.8,0.6,1.4,1.4,1.4h13.2
		c0.8,0,1.4-0.6,1.4-1.4v-23.2l10.6-12.7l21.8,36.9c0.2,0.3,0.4,0.4,0.8,0.4h16c0.7,0,0.9-0.5,0.5-1.1l-28.5-48.3l26.1-31.3
		c0.5-0.6,0.3-1.2-0.5-1.2h-17.5c-0.3,0-0.4,0.1-0.5,0.3l-28.7,34.5V210.4z"/>
</g>
</svg>
