<?xml version="1.0" encoding="utf-8"?>
<!-- Generator: Adobe Illustrator 22.0.0, SVG Export Plug-In . SVG Version: 6.00 Build 0)  -->
<svg version="1.1" id="图层_1" xmlns="http://www.w3.org/2000/svg" xmlns:xlink="http://www.w3.org/1999/xlink" x="0px" y="0px"
	 viewBox="0 0 800 500" style="enable-background:new 0 0 800 500;" xml:space="preserve">
<style type="text/css">
	.st0{fill:#41E6AF;}
</style>
<g>
	<g>
		<g>
			<polygon class="st0" points="320.7,241.2 317.1,235.3 317.1,235.3 297.6,202.5 297.6,202.5 296.9,201.4 289.8,201.4 262.1,250.1 
				290.2,298.6 297.4,298.5 297.5,298.2 320.8,258.4 306.4,258.4 294,280.4 276.4,250 293.8,219.5 306.2,241.2 			"/>
		</g>
	</g>
	<g>
		<g>
			<polygon class="st0" points="212.3,233.3 225.3,211.2 221,204.1 221,204.1 217.9,199.2 195.6,238.4 195.6,238.4 195,239.5 
				198.5,245.7 254.6,245.7 282.8,197.3 278.9,190.6 239.7,190.7 239.1,190.7 232.8,190.6 236.2,196.8 236.2,196.8 239.5,203.1 
				265.2,203 247.5,233.3 			"/>
		</g>
	</g>
	<g>
		<g>
			<path class="st0" d="M240,207.7c-1,0-2,0.2-3.1,0.5c-1.2,0.3-2.3,0.9-3.4,1.5c-3,1.8-5.1,4.5-5.5,7c-0.2,1.1,0.1,2.1,0.7,2.9
				c0,0,0,0,0,0c0.1,0.1,0.2,0.3,0.4,0.4c0.1,0.1,0.2,0.1,0.3,0.2c0.1,0,0.1,0.1,0.2,0.1c0.2,0.1,0.3,0.2,0.5,0.3c0,0,0,0,0,0
				c1.9,0.9,4.8,0.7,7.7-0.6l0.1,0c0.3-0.1,0.5-0.3,0.8-0.4c0.2-0.1,0.5-0.3,0.7-0.4c0.3-0.2,0.5-0.3,0.8-0.5
				c0.2-0.2,0.5-0.3,0.7-0.5l0.2-0.1c0.2-0.1,0.3-0.3,0.5-0.4c0.1-0.1,0.1-0.1,0.2-0.2c0.1-0.1,0.3-0.3,0.4-0.4
				c0.1-0.1,0.2-0.2,0.3-0.3c0.1-0.1,0.3-0.3,0.4-0.4c0.1-0.1,0.1-0.1,0.2-0.2c0.1-0.1,0.2-0.3,0.3-0.4l0.1-0.2
				c0.1-0.1,0.2-0.3,0.3-0.4c0,0,0,0,0,0l0.1-0.2c0.1-0.2,0.3-0.4,0.4-0.7c0.1-0.2,0.2-0.4,0.3-0.6l0.1-0.1c0-0.1,0.1-0.2,0.1-0.2
				c0,0,0,0,0,0c0-0.1,0-0.1,0.1-0.2c0-0.1,0.1-0.3,0.1-0.4c0-0.1,0.1-0.2,0.1-0.3c0-0.1,0-0.1,0-0.2c0-0.1,0-0.3,0-0.4l0-0.2
				c0-0.2,0-0.3,0-0.5c0-0.1,0-0.1,0-0.2c0-0.1,0-0.1,0-0.2c0,0,0-0.1,0-0.1l0-0.1c0-0.1-0.1-0.3-0.1-0.4c-0.1-0.2-0.1-0.3-0.2-0.5
				l0,0C243.6,208.3,242,207.7,240,207.7"/>
		</g>
	</g>
	<g>
		<g>
			<path class="st0" d="M246.5,214.2c0,0.1-0.1,0.3-0.1,0.4c0,0,0,0,0,0c0,0.1,0,0.1-0.1,0.2c0,0,0,0,0,0c-0.1,0.2-0.2,0.5-0.3,0.7
				v0c0,0,0,0,0,0c-0.9,1.9-2.6,3.6-4.6,5c-0.3,0.2-0.5,0.4-0.8,0.5c-0.3,0.2-0.5,0.3-0.8,0.5l-0.1,0c0,0,0,0,0,0
				c-0.1,0.1-0.2,0.1-0.3,0.1c-0.2,0.1-0.3,0.2-0.5,0.2l-0.1,0c-0.1,0-0.2,0.1-0.2,0.1c-0.2,0.1-0.4,0.2-0.5,0.2l-0.2,0.1
				c0,0,0,0-0.1,0c-0.1,0-0.2,0.1-0.2,0.1c-0.2,0.1-0.3,0.1-0.5,0.2l-0.2,0.1c0,0-0.1,0-0.1,0c-0.2,0.1-0.3,0.1-0.5,0.1
				c-0.1,0-0.2,0.1-0.3,0.1l0,0l0,0l0,0c-0.2,0-0.3,0.1-0.4,0.1c-0.1,0-0.2,0-0.3,0.1c0,0-0.1,0-0.1,0c-0.1,0-0.2,0-0.3,0
				c-0.1,0-0.2,0-0.2,0c-0.3,0-0.6,0.1-0.9,0.1h-0.1c-0.3,0-0.5,0-0.8,0c-0.1,0-0.1,0-0.2,0l-0.1,0c-0.2,0-0.4,0-0.6-0.1
				c-0.1,0-0.2,0-0.3,0c-0.2,0-0.4-0.1-0.5-0.1c-0.1,0-0.2,0-0.3-0.1l4.9,8l10.5-0.1l5.4-9.6l-4.9-8c0,0.1,0,0.2-0.1,0.3
				c0,0.1,0,0.1,0,0.1C246.6,213.9,246.5,214,246.5,214.2C246.5,214.1,246.5,214.2,246.5,214.2"/>
		</g>
	</g>
	<g>
		<g>
			<path class="st0" d="M302.3,243.2c0.5,0.8,0.9,1.8,1.2,2.9c0.3,1.2,0.5,2.4,0.5,3.7c0,3.5-1.2,6.7-3.1,8.4
				c-0.9,0.7-1.9,1.1-2.8,0.9h0c-0.2,0-0.4-0.1-0.6-0.1c-0.1,0-0.2-0.1-0.3-0.1c-0.1,0-0.2-0.1-0.2-0.1c-0.2-0.1-0.3-0.2-0.5-0.3
				c0,0,0,0,0,0c-1.8-1.2-3.1-3.8-3.5-6.9l0-0.1c0-0.3-0.1-0.6-0.1-0.9c0-0.3,0-0.6,0-0.8c0-0.3,0-0.6,0-0.9c0-0.3,0-0.6,0.1-0.8
				l0-0.2c0-0.2,0.1-0.4,0.1-0.6c0-0.1,0-0.2,0-0.2c0-0.2,0.1-0.4,0.1-0.5c0-0.1,0.1-0.3,0.1-0.4c0-0.2,0.1-0.4,0.2-0.5
				c0-0.1,0-0.2,0.1-0.2c0.1-0.2,0.1-0.4,0.2-0.5l0.1-0.2c0.1-0.2,0.1-0.3,0.2-0.5c0,0,0,0,0-0.1l0.1-0.2c0.1-0.2,0.2-0.4,0.4-0.7
				c0.1-0.2,0.3-0.4,0.4-0.6l0.1-0.1c0.1-0.1,0.1-0.1,0.1-0.2c0,0,0,0,0,0c0-0.1,0.1-0.1,0.1-0.1c0.1-0.1,0.2-0.2,0.3-0.3
				c0.1-0.1,0.2-0.2,0.2-0.2c0.1-0.1,0.1-0.1,0.2-0.1c0.1-0.1,0.2-0.2,0.3-0.2l0.1-0.1c0.1-0.1,0.3-0.2,0.4-0.2c0.1,0,0.1,0,0.1-0.1
				c0.1,0,0.1-0.1,0.2-0.1c0,0,0.1,0,0.1,0l0.1,0c0.1,0,0.3-0.1,0.4-0.1c0.2,0,0.3,0,0.5,0h0C299.9,240.4,301.3,241.5,302.3,243.2"
				/>
		</g>
	</g>
	<g>
		<g>
			<path class="st0" d="M293.4,241c-0.1,0.1-0.2,0.2-0.3,0.4c0,0,0,0,0,0c0,0-0.1,0.1-0.1,0.1c0,0,0,0,0,0c-0.2,0.2-0.3,0.4-0.4,0.6
				c0,0,0,0,0,0h0c-1.1,1.8-1.8,4.1-1.9,6.5c0,0.3,0,0.7,0,1c0,0.3,0,0.6,0,0.9l0,0.1c0,0,0,0,0,0c0,0.1,0,0.2,0,0.3
				c0,0.2,0,0.3,0,0.5l0,0.1c0,0.1,0,0.2,0,0.2c0,0.2,0.1,0.4,0.1,0.6l0,0.2c0,0,0,0,0,0.1c0,0.1,0,0.2,0.1,0.3
				c0,0.2,0.1,0.3,0.1,0.5l0.1,0.2c0,0,0,0.1,0,0.1c0,0.2,0.1,0.3,0.1,0.5c0,0.1,0.1,0.2,0.1,0.3l0,0l0,0l0,0
				c0.1,0.2,0.1,0.3,0.1,0.4c0,0.1,0.1,0.2,0.1,0.3c0,0,0,0.1,0,0.1c0,0.1,0.1,0.2,0.1,0.3c0,0.1,0.1,0.2,0.1,0.2
				c0.1,0.3,0.3,0.5,0.4,0.8l0.1,0.1c0.1,0.2,0.3,0.5,0.4,0.6c0,0.1,0.1,0.1,0.1,0.2l0,0.1c0.1,0.2,0.2,0.3,0.3,0.4
				c0.1,0.1,0.1,0.1,0.2,0.2c0.2,0.2,0.3,0.3,0.4,0.4c0.1,0.1,0.1,0.1,0.2,0.2l-9.3,0l-5.4-9l5.4-9.6l9.3,0
				c-0.1,0.1-0.1,0.1-0.2,0.2c0,0-0.1,0.1-0.1,0.1C293.6,240.8,293.5,240.9,293.4,241C293.4,241,293.4,241,293.4,241"/>
		</g>
	</g>
	<g>
		<g>
			<path class="st0" d="M240,292.3c-1,0-2-0.2-3.1-0.5c-1.2-0.3-2.3-0.9-3.4-1.5c-3-1.8-5.1-4.5-5.5-7c-0.2-1.1,0.1-2.1,0.7-2.9
				c0,0,0,0,0,0c0.1-0.1,0.2-0.3,0.4-0.4c0.1-0.1,0.2-0.1,0.3-0.2c0.1,0,0.1-0.1,0.2-0.1c0.2-0.1,0.3-0.2,0.5-0.3c0,0,0,0,0,0
				c1.9-0.9,4.8-0.7,7.7,0.6l0.1,0c0.3,0.1,0.5,0.3,0.8,0.4c0.2,0.1,0.5,0.3,0.7,0.4c0.3,0.2,0.5,0.3,0.8,0.5
				c0.2,0.2,0.5,0.3,0.7,0.5l0.2,0.1c0.2,0.1,0.3,0.3,0.5,0.4c0.1,0.1,0.1,0.1,0.2,0.2c0.1,0.1,0.3,0.3,0.4,0.4
				c0.1,0.1,0.2,0.2,0.3,0.3c0.1,0.1,0.3,0.3,0.4,0.4c0.1,0.1,0.1,0.1,0.2,0.2c0.1,0.1,0.2,0.3,0.3,0.4l0.1,0.2
				c0.1,0.1,0.2,0.3,0.3,0.4l0,0l0.1,0.2c0.1,0.2,0.3,0.4,0.4,0.7c0.1,0.2,0.2,0.4,0.3,0.6l0.1,0.1c0,0.1,0.1,0.2,0.1,0.2
				c0,0,0,0,0,0c0,0.1,0,0.1,0.1,0.2c0,0.1,0.1,0.3,0.1,0.4c0,0.1,0.1,0.2,0.1,0.3c0,0.1,0,0.1,0,0.2c0,0.1,0,0.3,0,0.4l0,0.2
				c0,0.2,0,0.3,0,0.5c0,0.1,0,0.1,0,0.2c0,0.1,0,0.1,0,0.2c0,0,0,0.1,0,0.1l0,0.1c0,0.1-0.1,0.3-0.1,0.4c-0.1,0.2-0.1,0.3-0.2,0.5
				l0,0C243.6,291.6,242,292.3,240,292.3"/>
		</g>
	</g>
	<g>
		<g>
			<path class="st0" d="M246.5,285.7c0-0.1-0.1-0.3-0.1-0.4c0,0,0,0,0,0c0-0.1,0-0.1-0.1-0.2c0,0,0,0,0,0c-0.1-0.2-0.2-0.5-0.3-0.7
				v0c0,0,0,0,0,0c-0.9-1.9-2.6-3.6-4.6-5c-0.3-0.2-0.5-0.4-0.8-0.5c-0.3-0.2-0.5-0.3-0.8-0.5l-0.1,0c0,0,0,0,0,0
				c-0.1-0.1-0.2-0.1-0.3-0.2c-0.2-0.1-0.3-0.2-0.5-0.2l-0.1,0c-0.1,0-0.2-0.1-0.2-0.1c-0.2-0.1-0.4-0.2-0.5-0.2l-0.2-0.1
				c0,0,0,0-0.1,0c-0.1,0-0.2-0.1-0.2-0.1c-0.2-0.1-0.3-0.1-0.5-0.2l-0.2-0.1c0,0-0.1,0-0.1,0c-0.2,0-0.3-0.1-0.5-0.1
				c-0.1,0-0.2-0.1-0.3-0.1l0,0c0,0,0,0,0,0l0,0c-0.2,0-0.3-0.1-0.4-0.1c-0.1,0-0.2,0-0.3-0.1c0,0-0.1,0-0.1,0c-0.1,0-0.2,0-0.3,0
				c-0.1,0-0.2,0-0.2,0c-0.3,0-0.6-0.1-0.9-0.1l-0.1,0c-0.3,0-0.5,0-0.8,0c-0.1,0-0.1,0-0.2,0l-0.1,0c-0.2,0-0.4,0-0.6,0.1
				c-0.1,0-0.2,0-0.3,0c-0.2,0-0.4,0.1-0.5,0.1c-0.1,0-0.2,0-0.3,0.1l4.9-8l10.5,0.1l5.4,9.6l-4.9,8c0-0.1,0-0.2-0.1-0.3
				c0-0.1,0-0.1,0-0.1C246.6,286,246.5,285.9,246.5,285.7C246.5,285.8,246.5,285.8,246.5,285.7"/>
		</g>
	</g>
	<g>
		<g>
			<polygon class="st0" points="265.2,297 239.5,296.9 235.6,304.3 232.8,309.4 239.7,309.3 239.7,309.3 278.9,309.4 282.8,302.6 
				254.6,254.2 198.5,254.2 195,260.4 195.7,261.5 195.6,261.5 217.9,300.8 225.3,288.8 212.3,266.6 247.4,266.6 			"/>
		</g>
	</g>
	<g>
		<path class="st0" d="M357.5,289c-2.1,0-4-0.8-5.4-2.2c-2-2-2-4.3-2-8.2c0-3.9,0-6.2,2-8.2c1.4-1.4,3.2-2.2,5.4-2.2
			c3.7,0,6.6,2.2,7.3,6.3h-3.1c-0.5-2.1-1.9-3.5-4.1-3.5c-1.2,0-2.3,0.5-3,1.2c-1,1.1-1.2,2.3-1.2,6.4c0,4.1,0.2,5.3,1.2,6.4
			c0.7,0.8,1.8,1.2,3,1.2c2.3,0,3.7-1.4,4.2-3.5h3.1C364.1,286.7,361.2,289,357.5,289z"/>
		<path class="st0" d="M381.2,286.8c-1.4,1.4-3.2,2.2-5.4,2.2c-2.2,0-4-0.8-5.4-2.2c-2-2-2-4.3-2-8.2c0-3.9,0-6.2,2-8.2
			c1.4-1.4,3.2-2.2,5.4-2.2c2.2,0,4,0.8,5.4,2.2c2,2,1.9,4.3,1.9,8.2C383.2,282.5,383.2,284.8,381.2,286.8z M378.9,272.2
			c-0.7-0.8-1.8-1.3-3-1.3c-1.2,0-2.3,0.5-3,1.3c-1,1.1-1.2,2.2-1.2,6.3c0,4.1,0.2,5.2,1.2,6.3c0.7,0.8,1.8,1.3,3,1.3
			c1.2,0,2.3-0.5,3-1.3c1-1.1,1.2-2.2,1.2-6.3C380.1,274.5,379.9,273.3,378.9,272.2z"/>
		<path class="st0" d="M402.9,288.8v-13.6l-4.7,9.9H396l-4.8-9.9v13.6h-3.1v-20.4h3.1l6,12.7l5.8-12.7h3.1v20.4H402.9z"/>
		<path class="st0" d="M426.6,288.8v-13.6l-4.7,9.9h-2.3l-4.8-9.9v13.6h-3.1v-20.4h3.1l6,12.7l5.8-12.7h3.1v20.4H426.6z"/>
		<path class="st0" d="M442.3,289c-4.2,0-7.3-2.8-7.3-7.1v-13.5h3.1v13.4c0,2.7,1.7,4.4,4.2,4.4c2.5,0,4.2-1.7,4.2-4.4v-13.4h3.1
			v13.5C449.6,286.1,446.4,289,442.3,289z"/>
		<path class="st0" d="M467.5,288.8l-9.4-14.4v14.4H455v-20.4h2.8l9.4,14.3v-14.3h3.1v20.4H467.5z"/>
		<path class="st0" d="M476,288.8v-20.4h3.1v20.4H476z"/>
		<path class="st0" d="M491.6,271.1v17.6h-3.1v-17.6h-5.6v-2.8h14.3v2.8H491.6z"/>
		<path class="st0" d="M507.7,280.4v8.4h-3.1v-8.4l-6.1-12h3.4l4.3,9l4.3-9h3.4L507.7,280.4z"/>
		<path class="st0" d="M530.8,289c-2.1,0-4-0.8-5.4-2.2c-2-2-2-4.3-2-8.2c0-3.9,0-6.2,2-8.2c1.4-1.4,3.2-2.2,5.4-2.2
			c3.7,0,6.6,2.2,7.3,6.3h-3.1c-0.5-2.1-1.9-3.5-4.1-3.5c-1.2,0-2.3,0.5-3,1.2c-1,1.1-1.2,2.3-1.2,6.4c0,4.1,0.2,5.3,1.2,6.4
			c0.7,0.8,1.8,1.2,3,1.2c2.3,0,3.7-1.4,4.2-3.5h3.1C537.4,286.7,534.5,289,530.8,289z"/>
		<path class="st0" d="M553.9,288.8v-8.9h-8.3v8.9h-3.1v-20.4h3.1v8.7h8.3v-8.7h3.1v20.4H553.9z"/>
	</g>
	<g>
		<path class="st0" d="M574.4,288.8l-1.4-4.1h-8l-1.4,4.1h-3.3l7.5-20.4h2.5l7.5,20.4H574.4z M569,273l-3.2,9.1h6.3L569,273z"/>
	</g>
	<g>
		<path class="st0" d="M580.9,288.8v-20.4h3.1v20.4H580.9z"/>
	</g>
	<g>
		<path class="st0" d="M602.2,288.8l-9.4-14.4v14.4h-3.1v-20.4h2.8l9.4,14.3v-14.3h3.1v20.4H602.2z"/>
	</g>
	<g>
		<path class="st0" d="M528.8,235.8c0-2.1,0-4.1-0.1-5.9c-0.1-1.8-0.2-3.6-0.5-5.2c-0.3-1.6-0.8-3.1-1.4-4.5c-0.7-1.4-1.6-2.7-2.9-4
			c-1.7-1.7-3.6-3.1-5.8-4c-2.2-0.9-4.6-1.4-7.4-1.4c-2.8,0-5.2,0.5-7.4,1.4c-2.2,0.9-4.1,2.2-5.8,4c-1.2,1.2-2.2,2.5-2.8,4
			c-0.7,1.4-1.1,2.9-1.4,4.5c-0.3,1.6-0.4,3.3-0.5,5.2c0,1.8-0.1,3.8-0.1,5.9c0,2.1,0,4.1,0.1,5.9c0,1.8,0.2,3.6,0.5,5.2
			c0.3,1.6,0.8,3.1,1.4,4.5c0.7,1.4,1.6,2.7,2.8,4c1.7,1.7,3.7,3.1,5.8,4c2.2,0.9,4.7,1.4,7.4,1.4c2.8,0,5.2-0.5,7.4-1.4
			c2.2-0.9,4.1-2.2,5.8-4c1.2-1.2,2.2-2.6,2.9-4c0.7-1.4,1.2-2.9,1.4-4.5c0.3-1.6,0.5-3.3,0.5-5.2
			C528.8,239.8,528.8,237.9,528.8,235.8 M519.2,235.8c0,2.3,0,4.3-0.1,5.8c-0.1,1.5-0.2,2.8-0.4,3.8c-0.2,1-0.4,1.8-0.7,2.4
			c-0.3,0.6-0.7,1.2-1.2,1.7c-0.7,0.8-1.6,1.4-2.6,1.9c-1,0.5-2.2,0.7-3.5,0.7c-1.3,0-2.5-0.3-3.6-0.7c-1.1-0.5-1.9-1.1-2.6-1.9
			c-0.5-0.5-0.8-1.1-1.1-1.7c-0.3-0.6-0.6-1.4-0.7-2.4c-0.2-1-0.3-2.3-0.4-3.8c-0.1-1.6-0.1-3.5-0.1-5.8c0-2.3,0-4.3,0.1-5.8
			c0.1-1.5,0.2-2.8,0.4-3.8c0.2-1,0.4-1.8,0.7-2.4c0.3-0.6,0.7-1.2,1.1-1.7c0.7-0.8,1.6-1.4,2.6-1.9c1.1-0.5,2.2-0.7,3.6-0.7
			c1.3,0,2.5,0.2,3.5,0.7c1,0.5,1.9,1.1,2.6,1.9c0.5,0.5,0.8,1.1,1.2,1.7c0.3,0.6,0.6,1.4,0.7,2.4c0.2,1,0.3,2.3,0.4,3.8
			C519.2,231.5,519.2,233.4,519.2,235.8"/>
	</g>
	<g>
		<path class="st0" d="M605,212.1c0-0.5-0.4-0.8-0.8-0.8h-7.9c-0.5,0-0.8,0.4-0.8,0.8v29.2l-19.2-29.8c-0.1-0.2-0.2-0.2-0.5-0.2
			h-7.3c-0.5,0-0.8,0.4-0.8,0.8v47.4c0,0.5,0.4,0.8,0.8,0.8h7.9c0.5,0,0.8-0.4,0.8-0.8v-29.3l19.2,29.9c0.1,0.2,0.2,0.2,0.5,0.2h7.3
			c0.5,0,0.8-0.4,0.8-0.8V212.1z"/>
	</g>
	<g>
		<path class="st0" d="M552.1,212.1c0-0.5-0.4-0.8-0.8-0.8h-7.9c-0.5,0-0.8,0.4-0.8,0.8v47.4c0,0.5,0.4,0.8,0.8,0.8h7.9
			c0.5,0,0.8-0.4,0.8-0.8V212.1z"/>
	</g>
	<g>
		<path class="st0" d="M457.8,235.8c0-2.4,0-4.3,0.1-5.9c0.1-1.5,0.2-2.8,0.4-3.8c0.7-4.2,4-6.7,8.1-6.7c2.7,0,5.1,1,6.7,3.3
			c0.7,1,1.2,2.1,1.5,3.5c0,0.1,0.1,0.2,0.3,0.2h9.3c0.1,0,0.2-0.1,0.2-0.2c-1-5.8-4.1-10.9-9.5-13.5c-2.5-1.2-5.3-1.8-8.5-1.8
			c-5.2,0-9.6,1.8-13.2,5.4c-2,2-3.4,4.5-4,7.4c-0.5,2.8-0.8,6.8-0.8,12.2c0,5.4,0.3,9.4,0.8,12.2c0.6,2.8,1.9,5.3,4,7.4
			c3.6,3.6,8,5.4,13.2,5.4c3.2,0,6-0.6,8.5-1.8c5.4-2.6,8.5-7.7,9.5-13.5c0-0.1,0-0.2-0.2-0.2h-9.3c-0.2,0-0.2,0.1-0.3,0.2
			c-0.3,1.3-0.9,2.5-1.5,3.5c-1.6,2.3-4,3.3-6.7,3.3c-4.1,0-7.3-2.5-8.1-6.7c-0.2-1-0.3-2.3-0.4-3.8
			C457.8,240.1,457.8,238.1,457.8,235.8"/>
	</g>
	<g>
		<path class="st0" d="M359.8,212.1c0-0.5-0.4-0.8-0.8-0.8h-7.9c-0.5,0-0.8,0.4-0.8,0.8v47.4c0,0.5,0.4,0.8,0.8,0.8h7.9
			c0.5,0,0.8-0.4,0.8-0.8v-13.9l6.3-7.6l13,22.1c0.1,0.2,0.3,0.3,0.5,0.3h9.6c0.4,0,0.5-0.3,0.3-0.7l-17-28.9L388,212
			c0.3-0.4,0.2-0.7-0.3-0.7h-10.5c-0.2,0-0.2,0-0.3,0.2L359.8,232V212.1z"/>
	</g>
	<g>
		<path class="st0" d="M417.2,252.2c-4.4,0-8.5-4.1-8.5-9v-31.1c0-0.5-0.4-0.8-0.8-0.8H400c-0.5,0-0.8,0.4-0.8,0.8V243
			c0,10.8,8.1,17.7,18,17.7c9.9,0,18-6.9,18-17.7v-30.9c0-0.5-0.4-0.8-0.8-0.8h-7.9c-0.5,0-0.8,0.4-0.8,0.8v31.1
			C425.6,248,421.6,252.2,417.2,252.2"/>
	</g>
</g>
</svg>
